<svg xmlns="http://www.w3.org/2000/svg" width="1083" height="217" viewBox="0 0 1083 217"><path d="M 524.00 41.00 L 524.00 175.00 L 548.00 176.00 L 549.00 42.00 Z" fill="#F8F8FF" fill-rule="evenodd"/><path d="M 82.00 94.00 L 80.00 98.00 L 80.00 106.00 L 82.00 111.00 L 89.00 118.00 L 165.00 176.00 L 201.00 176.00 L 109.00 104.00 L 109.00 100.00 L 113.00 96.00 L 194.00 41.00 L 158.00 41.00 L 87.00 89.00 Z" fill="#F8F8FF" fill-rule="evenodd"/><path d="M 39.00 41.00 L 39.00 176.00 L 63.00 176.00 L 64.00 42.00 Z" fill="#F8F8FF" fill-rule="evenodd"/><path d="M 868.00 61.00 L 860.00 75.00 L 857.00 86.00 L 856.00 122.00 L 859.00 137.00 L 864.00 149.00 L 869.00 156.00 L 882.00 167.00 L 895.00 173.00 L 911.00 177.00 L 934.00 179.00 L 979.00 178.00 L 993.00 176.00 L 1009.00 171.00 L 1023.00 163.00 L 1034.00 151.00 L 1039.00 141.00 L 1043.00 125.00 L 1043.00 89.00 L 1039.00 74.00 L 1035.00 66.00 L 1024.00 54.00 L 1015.00 48.00 L 996.00 41.00 L 980.00 38.00 L 919.00 38.00 L 893.00 44.00 L 875.00 54.00 Z" fill="#F8F8FF" fill-rule="evenodd"/><path d="M 887.00 77.00 L 899.00 65.00 L 911.00 60.00 L 927.00 57.00 L 973.00 57.00 L 994.00 62.00 L 1003.00 67.00 L 1011.00 75.00 L 1017.00 88.00 L 1018.00 123.00 L 1015.00 134.00 L 1010.00 143.00 L 1004.00 149.00 L 995.00 154.00 L 981.00 158.00 L 943.00 160.00 L 918.00 158.00 L 905.00 154.00 L 896.00 149.00 L 890.00 143.00 L 883.00 127.00 L 882.00 94.00 Z" fill="#F8F8FF" fill-rule="evenodd"/><path d="M 772.00 51.00 L 767.00 47.00 L 750.00 40.00 L 738.00 38.00 L 713.00 37.00 L 690.00 38.00 L 673.00 41.00 L 659.00 46.00 L 650.00 52.00 L 642.00 61.00 L 638.00 69.00 L 635.00 81.00 L 635.00 176.00 L 660.00 176.00 L 661.00 81.00 L 665.00 71.00 L 672.00 64.00 L 679.00 61.00 L 694.00 58.00 L 732.00 58.00 L 747.00 62.00 L 754.00 68.00 L 757.00 78.00 L 757.00 90.00 L 753.00 101.00 L 748.00 106.00 L 740.00 109.00 L 714.00 110.00 L 710.00 112.00 L 707.00 118.00 L 708.00 127.00 L 758.00 176.00 L 788.00 176.00 L 740.00 128.00 L 743.00 127.00 L 741.00 127.00 L 741.00 125.00 L 752.00 124.00 L 769.00 118.00 L 776.00 111.00 L 779.00 105.00 L 782.00 93.00 L 782.00 74.00 L 779.00 62.00 Z" fill="#F8F8FF" fill-rule="evenodd"/><path d="M 259.00 175.00 L 287.00 175.00 L 342.00 64.00 L 346.00 60.00 L 353.00 58.00 L 359.00 60.00 L 363.00 64.00 L 418.00 175.00 L 445.00 176.00 L 386.00 57.00 L 374.00 43.00 L 366.00 39.00 L 355.00 37.00 L 337.00 40.00 L 324.00 50.00 Z" fill="#F8F8FF" fill-rule="evenodd"/></svg>