<svg xmlns="http://www.w3.org/2000/svg" width="301" height="150" viewBox="0 0 301 150"><path d="M 164.00 140.00 L 165.00 143.00 L 190.00 143.00 L 166.00 143.00 Z" fill="#F8F8FF" fill-rule="evenodd"/><path d="M 6.00 143.00 L 32.00 143.00 L 8.00 143.00 L 7.00 141.00 L 10.00 136.00 Z" fill="#F8F8FF" fill-rule="evenodd"/><path d="M 271.00 135.00 L 271.00 143.00 L 294.00 143.00 L 272.00 143.00 Z" fill="#F8F8FF" fill-rule="evenodd"/><path d="M 277.00 10.00 L 271.00 10.00 L 271.00 36.00 L 271.00 11.00 Z" fill="#F8F8FF" fill-rule="evenodd"/><path d="M 270.00 9.00 L 270.00 143.00 L 294.00 144.00 L 295.00 10.00 Z" fill="#D69B32" fill-rule="evenodd"/><path d="M 270.00 135.00 L 272.00 135.00 L 272.00 142.00 L 295.00 143.00 L 271.00 144.00 Z" fill="#D69B32" fill-rule="evenodd"/><path d="M 270.00 75.00 L 271.00 74.00 L 272.00 76.00 L 271.00 77.00 Z" fill="#D69B32" fill-rule="evenodd"/><path d="M 277.00 9.00 L 277.00 11.00 L 272.00 11.00 L 271.00 37.00 L 270.00 10.00 Z" fill="#D69B32" fill-rule="evenodd"/><path d="M 5.00 143.00 L 33.00 143.00 L 88.00 32.00 L 92.00 28.00 L 99.00 26.00 L 105.00 28.00 L 109.00 32.00 L 164.00 143.00 L 191.00 144.00 L 145.00 50.00 L 143.00 50.00 L 143.00 47.00 L 141.00 47.00 L 142.00 45.00 L 132.00 25.00 L 120.00 11.00 L 112.00 7.00 L 101.00 5.00 L 83.00 8.00 L 70.00 18.00 L 71.00 19.00 L 65.00 26.00 L 51.00 54.00 L 52.00 56.00 L 50.00 56.00 L 51.00 58.00 L 49.00 58.00 L 49.00 61.00 L 46.00 63.00 L 11.00 132.00 L 12.00 134.00 L 10.00 134.00 L 10.00 138.00 L 8.00 138.00 L 9.00 140.00 L 7.00 140.00 L 8.00 142.00 L 33.00 143.00 Z" fill="#D69B32" fill-rule="evenodd"/><path d="M 164.00 142.00 L 165.00 141.00 L 191.00 143.00 L 165.00 144.00 Z" fill="#D69B32" fill-rule="evenodd"/><path d="M 163.00 140.00 L 164.00 139.00 L 165.00 141.00 L 164.00 142.00 Z" fill="#D69B32" fill-rule="evenodd"/><path d="M 185.00 135.00 L 186.00 134.00 L 187.00 136.00 L 186.00 137.00 Z" fill="#D69B32" fill-rule="evenodd"/><path d="M 184.00 133.00 L 185.00 132.00 L 186.00 134.00 L 185.00 135.00 Z" fill="#D69B32" fill-rule="evenodd"/><path d="M 159.00 132.00 L 160.00 131.00 L 161.00 133.00 L 160.00 134.00 Z" fill="#D69B32" fill-rule="evenodd"/><path d="M 183.00 131.00 L 184.00 130.00 L 185.00 132.00 L 184.00 133.00 Z" fill="#D69B32" fill-rule="evenodd"/><path d="M 158.00 130.00 L 159.00 129.00 L 160.00 131.00 L 159.00 132.00 Z" fill="#D69B32" fill-rule="evenodd"/><path d="M 182.00 129.00 L 183.00 128.00 L 184.00 130.00 L 183.00 131.00 Z" fill="#D69B32" fill-rule="evenodd"/><path d="M 181.00 127.00 L 182.00 126.00 L 183.00 128.00 L 182.00 129.00 Z" fill="#D69B32" fill-rule="evenodd"/><path d="M 174.00 113.00 L 175.00 112.00 L 176.00 114.00 L 175.00 115.00 Z" fill="#D69B32" fill-rule="evenodd"/><path d="M 173.00 111.00 L 174.00 110.00 L 175.00 112.00 L 174.00 113.00 Z" fill="#D69B32" fill-rule="evenodd"/><path d="M 172.00 109.00 L 173.00 108.00 L 174.00 110.00 L 173.00 111.00 Z" fill="#D69B32" fill-rule="evenodd"/><path d="M 171.00 107.00 L 172.00 106.00 L 173.00 108.00 L 172.00 109.00 Z" fill="#D69B32" fill-rule="evenodd"/><path d="M 29.00 96.00 L 30.00 95.00 L 31.00 97.00 L 30.00 98.00 Z" fill="#D69B32" fill-rule="evenodd"/></svg>