<svg xmlns="http://www.w3.org/2000/svg" width="1083.0" height="407.0" viewBox="0 0 1083.0 407.0"><g transform="translate(391.0,0)"><path d="M 164.00 140.00 L 165.00 143.00 L 190.00 143.00 L 166.00 143.00 Z" fill="#F8F8FF" fill-rule="evenodd"/><path d="M 6.00 143.00 L 32.00 143.00 L 8.00 143.00 L 7.00 141.00 L 10.00 136.00 Z" fill="#F8F8FF" fill-rule="evenodd"/><path d="M 271.00 135.00 L 271.00 143.00 L 294.00 143.00 L 272.00 143.00 Z" fill="#F8F8FF" fill-rule="evenodd"/><path d="M 277.00 10.00 L 271.00 10.00 L 271.00 36.00 L 271.00 11.00 Z" fill="#F8F8FF" fill-rule="evenodd"/><path d="M 270.00 9.00 L 270.00 143.00 L 294.00 144.00 L 295.00 10.00 Z" fill="#D69B32" fill-rule="evenodd"/><path d="M 270.00 135.00 L 272.00 135.00 L 272.00 142.00 L 295.00 143.00 L 271.00 144.00 Z" fill="#D69B32" fill-rule="evenodd"/><path d="M 270.00 75.00 L 271.00 74.00 L 272.00 76.00 L 271.00 77.00 Z" fill="#D69B32" fill-rule="evenodd"/><path d="M 277.00 9.00 L 277.00 11.00 L 272.00 11.00 L 271.00 37.00 L 270.00 10.00 Z" fill="#D69B32" fill-rule="evenodd"/><path d="M 5.00 143.00 L 33.00 143.00 L 88.00 32.00 L 92.00 28.00 L 99.00 26.00 L 105.00 28.00 L 109.00 32.00 L 164.00 143.00 L 191.00 144.00 L 145.00 50.00 L 143.00 50.00 L 143.00 47.00 L 141.00 47.00 L 142.00 45.00 L 132.00 25.00 L 120.00 11.00 L 112.00 7.00 L 101.00 5.00 L 83.00 8.00 L 70.00 18.00 L 71.00 19.00 L 65.00 26.00 L 51.00 54.00 L 52.00 56.00 L 50.00 56.00 L 51.00 58.00 L 49.00 58.00 L 49.00 61.00 L 46.00 63.00 L 11.00 132.00 L 12.00 134.00 L 10.00 134.00 L 10.00 138.00 L 8.00 138.00 L 9.00 140.00 L 7.00 140.00 L 8.00 142.00 L 33.00 143.00 Z" fill="#D69B32" fill-rule="evenodd"/><path d="M 164.00 142.00 L 165.00 141.00 L 191.00 143.00 L 165.00 144.00 Z" fill="#D69B32" fill-rule="evenodd"/><path d="M 163.00 140.00 L 164.00 139.00 L 165.00 141.00 L 164.00 142.00 Z" fill="#D69B32" fill-rule="evenodd"/><path d="M 185.00 135.00 L 186.00 134.00 L 187.00 136.00 L 186.00 137.00 Z" fill="#D69B32" fill-rule="evenodd"/><path d="M 184.00 133.00 L 185.00 132.00 L 186.00 134.00 L 185.00 135.00 Z" fill="#D69B32" fill-rule="evenodd"/><path d="M 159.00 132.00 L 160.00 131.00 L 161.00 133.00 L 160.00 134.00 Z" fill="#D69B32" fill-rule="evenodd"/><path d="M 183.00 131.00 L 184.00 130.00 L 185.00 132.00 L 184.00 133.00 Z" fill="#D69B32" fill-rule="evenodd"/><path d="M 158.00 130.00 L 159.00 129.00 L 160.00 131.00 L 159.00 132.00 Z" fill="#D69B32" fill-rule="evenodd"/><path d="M 182.00 129.00 L 183.00 128.00 L 184.00 130.00 L 183.00 131.00 Z" fill="#D69B32" fill-rule="evenodd"/><path d="M 181.00 127.00 L 182.00 126.00 L 183.00 128.00 L 182.00 129.00 Z" fill="#D69B32" fill-rule="evenodd"/><path d="M 174.00 113.00 L 175.00 112.00 L 176.00 114.00 L 175.00 115.00 Z" fill="#D69B32" fill-rule="evenodd"/><path d="M 173.00 111.00 L 174.00 110.00 L 175.00 112.00 L 174.00 113.00 Z" fill="#D69B32" fill-rule="evenodd"/><path d="M 172.00 109.00 L 173.00 108.00 L 174.00 110.00 L 173.00 111.00 Z" fill="#D69B32" fill-rule="evenodd"/><path d="M 171.00 107.00 L 172.00 106.00 L 173.00 108.00 L 172.00 109.00 Z" fill="#D69B32" fill-rule="evenodd"/><path d="M 29.00 96.00 L 30.00 95.00 L 31.00 97.00 L 30.00 98.00 Z" fill="#D69B32" fill-rule="evenodd"/></g><g transform="translate(0.0,190.0)"><path d="M 418.00 172.00 L 419.00 175.00 L 444.00 175.00 L 420.00 175.00 Z" fill="#F8F8FF" fill-rule="evenodd"/><path d="M 260.00 175.00 L 286.00 175.00 L 262.00 175.00 L 261.00 173.00 L 264.00 168.00 Z" fill="#F8F8FF" fill-rule="evenodd"/><path d="M 525.00 167.00 L 525.00 175.00 L 548.00 175.00 L 526.00 175.00 Z" fill="#F8F8FF" fill-rule="evenodd"/><path d="M 531.00 42.00 L 525.00 42.00 L 525.00 68.00 L 525.00 43.00 Z" fill="#F8F8FF" fill-rule="evenodd"/><path d="M 82.00 94.00 L 80.00 98.00 L 80.00 106.00 L 83.00 112.00 L 89.00 118.00 L 96.00 122.00 L 165.00 176.00 L 201.00 176.00 L 110.00 106.00 L 108.00 101.00 L 113.00 96.00 L 194.00 41.00 L 158.00 41.00 L 145.00 51.00 L 87.00 89.00 Z" fill="#F8F8FF" fill-rule="evenodd"/><path d="M 39.00 41.00 L 39.00 176.00 L 63.00 176.00 L 64.00 42.00 Z" fill="#F8F8FF" fill-rule="evenodd"/><path d="M 868.00 61.00 L 860.00 75.00 L 857.00 86.00 L 856.00 122.00 L 859.00 137.00 L 864.00 149.00 L 870.00 157.00 L 882.00 167.00 L 895.00 173.00 L 911.00 177.00 L 934.00 179.00 L 963.00 179.00 L 977.00 177.00 L 979.00 178.00 L 992.00 175.00 L 993.00 176.00 L 1009.00 171.00 L 1023.00 163.00 L 1034.00 151.00 L 1039.00 141.00 L 1043.00 125.00 L 1043.00 89.00 L 1039.00 74.00 L 1035.00 66.00 L 1024.00 54.00 L 1015.00 48.00 L 996.00 41.00 L 980.00 38.00 L 919.00 38.00 L 893.00 44.00 L 875.00 54.00 Z" fill="#F8F8FF" fill-rule="evenodd"/><path d="M 886.00 78.00 L 897.00 66.00 L 910.00 60.00 L 925.00 57.00 L 973.00 57.00 L 997.00 63.00 L 1010.00 73.00 L 1017.00 87.00 L 1019.00 113.00 L 1015.00 135.00 L 1010.00 143.00 L 1004.00 149.00 L 995.00 154.00 L 981.00 158.00 L 961.00 160.00 L 937.00 160.00 L 918.00 158.00 L 902.00 153.00 L 890.00 143.00 L 885.00 135.00 L 882.00 123.00 L 882.00 92.00 Z" fill="#F8F8FF" fill-rule="evenodd"/><path d="M 772.00 51.00 L 767.00 47.00 L 750.00 40.00 L 738.00 38.00 L 736.00 39.00 L 713.00 37.00 L 691.00 39.00 L 690.00 38.00 L 673.00 41.00 L 659.00 46.00 L 650.00 52.00 L 641.00 63.00 L 635.00 81.00 L 635.00 176.00 L 660.00 175.00 L 660.00 87.00 L 663.00 74.00 L 672.00 64.00 L 676.00 62.00 L 694.00 58.00 L 714.00 57.00 L 738.00 59.00 L 749.00 63.00 L 754.00 68.00 L 756.00 73.00 L 757.00 90.00 L 753.00 101.00 L 746.00 107.00 L 734.00 110.00 L 714.00 110.00 L 709.00 113.00 L 707.00 118.00 L 708.00 127.00 L 758.00 176.00 L 788.00 176.00 L 739.00 128.00 L 740.00 126.00 L 743.00 127.00 L 741.00 127.00 L 741.00 125.00 L 751.00 123.00 L 752.00 124.00 L 769.00 118.00 L 776.00 111.00 L 779.00 105.00 L 782.00 93.00 L 782.00 74.00 L 779.00 62.00 Z" fill="#F8F8FF" fill-rule="evenodd"/><path d="M 524.00 41.00 L 524.00 175.00 L 548.00 176.00 L 549.00 42.00 Z" fill="#D69B32" fill-rule="evenodd"/><path d="M 524.00 167.00 L 526.00 167.00 L 526.00 174.00 L 549.00 175.00 L 525.00 176.00 Z" fill="#D69B32" fill-rule="evenodd"/><path d="M 524.00 107.00 L 525.00 106.00 L 526.00 108.00 L 525.00 109.00 Z" fill="#D69B32" fill-rule="evenodd"/><path d="M 531.00 41.00 L 531.00 43.00 L 526.00 43.00 L 525.00 69.00 L 524.00 42.00 Z" fill="#D69B32" fill-rule="evenodd"/><path d="M 259.00 175.00 L 287.00 175.00 L 342.00 64.00 L 346.00 60.00 L 353.00 58.00 L 359.00 60.00 L 363.00 64.00 L 418.00 175.00 L 445.00 176.00 L 399.00 82.00 L 397.00 82.00 L 397.00 79.00 L 395.00 79.00 L 396.00 77.00 L 386.00 57.00 L 374.00 43.00 L 366.00 39.00 L 355.00 37.00 L 337.00 40.00 L 324.00 50.00 L 325.00 51.00 L 319.00 58.00 L 305.00 86.00 L 306.00 88.00 L 304.00 88.00 L 305.00 90.00 L 303.00 90.00 L 303.00 93.00 L 300.00 95.00 L 265.00 164.00 L 266.00 166.00 L 264.00 166.00 L 264.00 170.00 L 262.00 170.00 L 263.00 172.00 L 261.00 172.00 L 262.00 174.00 L 287.00 175.00 Z" fill="#D69B32" fill-rule="evenodd"/><path d="M 418.00 174.00 L 419.00 173.00 L 445.00 175.00 L 419.00 176.00 Z" fill="#D69B32" fill-rule="evenodd"/><path d="M 417.00 172.00 L 418.00 171.00 L 419.00 173.00 L 418.00 174.00 Z" fill="#D69B32" fill-rule="evenodd"/><path d="M 439.00 167.00 L 440.00 166.00 L 441.00 168.00 L 440.00 169.00 Z" fill="#D69B32" fill-rule="evenodd"/><path d="M 438.00 165.00 L 439.00 164.00 L 440.00 166.00 L 439.00 167.00 Z" fill="#D69B32" fill-rule="evenodd"/><path d="M 413.00 164.00 L 414.00 163.00 L 415.00 165.00 L 414.00 166.00 Z" fill="#D69B32" fill-rule="evenodd"/><path d="M 437.00 163.00 L 438.00 162.00 L 439.00 164.00 L 438.00 165.00 Z" fill="#D69B32" fill-rule="evenodd"/><path d="M 412.00 162.00 L 413.00 161.00 L 414.00 163.00 L 413.00 164.00 Z" fill="#D69B32" fill-rule="evenodd"/><path d="M 436.00 161.00 L 437.00 160.00 L 438.00 162.00 L 437.00 163.00 Z" fill="#D69B32" fill-rule="evenodd"/><path d="M 435.00 159.00 L 436.00 158.00 L 437.00 160.00 L 436.00 161.00 Z" fill="#D69B32" fill-rule="evenodd"/><path d="M 428.00 145.00 L 429.00 144.00 L 430.00 146.00 L 429.00 147.00 Z" fill="#D69B32" fill-rule="evenodd"/><path d="M 427.00 143.00 L 428.00 142.00 L 429.00 144.00 L 428.00 145.00 Z" fill="#D69B32" fill-rule="evenodd"/><path d="M 426.00 141.00 L 427.00 140.00 L 428.00 142.00 L 427.00 143.00 Z" fill="#D69B32" fill-rule="evenodd"/><path d="M 425.00 139.00 L 426.00 138.00 L 427.00 140.00 L 426.00 141.00 Z" fill="#D69B32" fill-rule="evenodd"/><path d="M 283.00 128.00 L 284.00 127.00 L 285.00 129.00 L 284.00 130.00 Z" fill="#D69B32" fill-rule="evenodd"/></g></svg>